<?xml version="1.0" standalone="no"?>
<!DOCTYPE svg PUBLIC "-//W3C//DTD SVG 20010904//EN"
 "http://www.w3.org/TR/2001/REC-SVG-20010904/DTD/svg10.dtd">
<svg version="1.0" xmlns="http://www.w3.org/2000/svg"
 width="1218.000000pt" height="803.000000pt" viewBox="0 0 1218.000000 803.000000"
 preserveAspectRatio="xMidYMid meet">

<g transform="translate(0.000000,803.000000) scale(0.100000,-0.100000)"
fill="#000000" stroke="none">
<path d="M4940 5845 l0 -605 55 0 55 0 0 76 0 76 64 -60 c91 -84 150 -106 286
-107 98 0 110 2 175 33 168 79 265 232 265 416 0 193 -94 341 -270 425 -49 23
-67 26 -170 26 -108 0 -119 -2 -180 -31 -36 -17 -89 -52 -117 -78 l-53 -48 0
241 0 241 -55 0 -55 0 0 -605z m593 152 c67 -33 130 -100 165 -175 23 -49 27
-70 27 -147 0 -78 -4 -98 -28 -147 -35 -71 -91 -129 -159 -165 -48 -25 -63
-28 -153 -28 -89 0 -105 3 -150 27 -138 73 -213 226 -186 379 23 132 103 226
232 273 67 25 182 17 252 -17z"/>
<path d="M7640 6441 c-155 -23 -249 -70 -361 -181 -96 -95 -140 -171 -164
-288 -71 -335 116 -653 436 -739 88 -24 280 -23 369 1 100 27 208 88 273 154
l58 58 -46 33 -47 33 -31 -30 c-113 -107 -235 -156 -387 -156 -268 0 -473 170
-511 425 -48 323 210 597 541 576 140 -9 230 -49 332 -145 l57 -54 41 32 c22
17 40 38 40 45 0 7 -30 41 -67 75 -132 124 -344 188 -533 161z"/>
<path d="M11087 6444 c-4 -4 -7 -277 -7 -606 l0 -598 60 0 60 0 2 192 3 192
214 -192 215 -192 80 0 c66 1 78 3 65 13 -8 7 -122 108 -253 226 l-238 215 43
40 c24 23 131 116 237 209 l194 167 -84 0 -83 -1 -195 -170 -195 -170 -5 338
-5 338 -50 3 c-28 2 -54 0 -58 -4z"/>
<path d="M1129 6033 c0 -465 -8 -587 -38 -637 -24 -39 -91 -76 -137 -76 -34 0
-116 37 -180 81 -26 17 -49 27 -53 22 -3 -5 -17 -27 -30 -48 l-25 -38 33 -27
c44 -37 129 -78 192 -91 65 -14 132 -7 197 21 61 26 94 60 124 125 23 50 23
52 26 553 l3 502 -55 0 -56 0 -1 -387z"/>
<path d="M1785 6113 c-117 -42 -218 -131 -270 -238 -81 -166 -46 -381 86 -520
161 -171 437 -180 607 -21 27 25 52 46 56 46 3 0 6 -31 6 -70 l0 -70 55 0 55
0 0 435 0 435 -55 0 -55 0 0 -77 0 -76 -60 57 c-86 82 -150 109 -275 113 -77
3 -111 -1 -150 -14z m292 -123 c70 -35 135 -101 166 -168 18 -39 22 -65 22
-152 0 -96 -3 -110 -28 -158 -114 -217 -393 -254 -557 -75 -170 186 -97 485
139 569 20 7 72 13 117 14 70 0 89 -4 141 -30z"/>
<path d="M2931 6114 c-132 -35 -238 -125 -299 -251 -36 -76 -37 -81 -37 -194
0 -113 1 -116 38 -191 44 -89 124 -170 208 -210 193 -91 451 -50 585 95 l47
50 -24 18 c-57 43 -61 43 -109 -2 -24 -23 -73 -56 -109 -73 -59 -27 -76 -31
-161 -31 -86 0 -101 4 -160 31 -103 49 -164 121 -196 230 -20 71 -15 161 14
227 31 70 111 149 185 183 54 24 74 28 158 28 91 1 99 -1 171 -37 43 -21 90
-53 108 -74 l32 -36 34 18 c60 32 61 39 8 95 -58 62 -107 91 -198 119 -81 25
-213 27 -295 5z"/>
<path d="M6155 6119 c-44 -12 -102 -65 -127 -112 -28 -56 -28 -148 0 -204 27
-52 94 -110 174 -153 131 -69 178 -117 178 -180 0 -74 -74 -140 -157 -140 -64
0 -96 12 -149 56 l-42 34 -31 -37 c-17 -21 -31 -41 -31 -44 0 -14 76 -73 119
-93 66 -30 200 -30 256 1 88 47 137 127 137 223 1 115 -47 174 -217 270 -53
30 -110 70 -126 90 -81 97 17 228 144 191 23 -7 63 -28 89 -47 l47 -33 30 36
31 37 -27 28 c-15 16 -54 42 -87 58 -47 24 -71 30 -120 29 -34 0 -74 -5 -91
-10z"/>
<path d="M8680 6114 c-19 -8 -59 -38 -87 -67 l-53 -51 0 57 0 57 -60 0 -60 0
0 -435 0 -435 59 0 59 0 4 283 c4 239 7 290 22 331 42 115 110 172 195 164 47
-5 48 -4 74 37 15 23 27 45 27 48 0 10 -64 27 -104 27 -23 -1 -57 -8 -76 -16z"/>
<path d="M9220 6112 c-72 -24 -125 -59 -176 -114 -86 -94 -124 -192 -124 -324
0 -137 46 -247 142 -341 156 -151 441 -152 613 -2 42 37 108 136 100 149 -4 6
-24 19 -45 30 l-39 20 -30 -43 c-44 -64 -90 -103 -156 -134 -81 -37 -206 -40
-276 -5 -106 52 -181 155 -195 270 l-7 52 392 0 391 0 0 38 c-1 152 -102 307
-246 379 -70 34 -82 37 -182 40 -84 2 -119 -1 -162 -15z m260 -108 c95 -30
176 -118 205 -221 l6 -23 -319 0 c-175 0 -321 3 -325 6 -7 7 27 89 56 132 33
48 119 104 185 118 63 14 123 11 192 -12z"/>
<path d="M10295 6117 c-149 -50 -260 -168 -300 -322 -54 -207 44 -439 223
-529 124 -62 306 -61 433 5 74 37 189 162 189 204 0 6 -20 21 -44 32 l-44 22
-38 -56 c-47 -69 -118 -117 -204 -139 -193 -49 -372 68 -408 267 -6 29 -8 57
-5 61 2 5 179 8 393 8 l390 0 -5 28 c-2 15 -7 48 -10 74 -16 124 -141 282
-262 329 -72 28 -244 37 -308 16z m190 -98 c113 -21 192 -79 237 -174 15 -33
28 -66 28 -72 0 -10 -71 -13 -320 -13 -364 0 -339 -7 -291 88 47 94 123 151
225 172 58 11 56 11 121 -1z"/>
<path d="M3975 6073 c-194 -70 -325 -248 -325 -443 0 -230 175 -422 397 -436
l78 -5 -60 25 c-126 54 -200 132 -237 250 -51 167 22 341 176 416 80 39 153
47 236 26 156 -40 253 -151 281 -325 14 -82 23 -78 39 20 30 179 -69 358 -247
446 -72 36 -83 38 -182 41 -82 2 -117 -2 -156 -15z"/>
<path d="M4124 5436 c-28 -15 -59 -35 -69 -46 -17 -18 -16 -18 37 -4 100 26
119 21 247 -75 146 -108 246 -130 352 -78 52 25 165 128 124 112 -69 -26 -118
-37 -176 -38 -63 -2 -71 1 -211 71 -176 89 -224 98 -304 58z"/>
<path d="M4251 5196 c-23 -13 -22 -13 26 -20 34 -4 73 -21 127 -56 141 -88
222 -87 323 5 l48 43 -55 -19 c-80 -27 -115 -24 -234 21 -114 43 -190 51 -235
26z"/>
<path d="M9323 4744 c-15 -24 -15 -29 -2 -53 28 -50 109 -32 109 25 0 55 -76
75 -107 28z"/>
<path d="M10597 4752 c-21 -23 -21 -41 -1 -70 22 -32 73 -27 93 9 13 24 13 29
-2 53 -21 31 -66 35 -90 8z"/>
<path d="M4120 4380 l0 -380 35 0 35 0 0 145 c0 188 10 234 64 290 93 97 233
76 265 -41 6 -21 11 -119 11 -216 l0 -178 36 0 36 0 -4 208 c-3 188 -5 211
-25 247 -26 49 -48 70 -96 90 -78 33 -174 12 -250 -55 l-37 -32 0 151 0 151
-35 0 -35 0 0 -380z"/>
<path d="M5910 4610 c0 -82 -4 -150 -8 -150 -4 0 -23 16 -42 35 -91 94 -270
85 -375 -20 -112 -112 -106 -307 12 -416 61 -56 104 -72 188 -72 79 0 124 15
177 62 20 17 38 31 42 31 3 0 6 -18 6 -40 0 -39 1 -40 35 -40 l35 0 0 380 0
380 -35 0 -35 0 0 -150z m-122 -139 c79 -41 122 -113 122 -203 -1 -124 -95
-218 -217 -218 -122 1 -213 97 -213 225 0 85 46 158 125 199 42 22 137 21 183
-3z"/>
<path d="M2440 4650 l0 -100 -45 0 c-43 0 -45 -1 -45 -30 0 -29 2 -30 45 -30
l45 0 0 -245 0 -245 35 0 35 0 2 243 3 242 58 3 c56 3 57 4 57 32 0 30 0 30
-60 30 l-60 0 0 100 0 100 -35 0 -35 0 0 -100z"/>
<path d="M10330 4650 l0 -100 -50 0 c-49 0 -50 -1 -50 -29 0 -28 2 -30 48 -33
l47 -3 3 -242 2 -243 35 0 35 0 0 245 0 245 55 0 c54 0 55 0 55 30 0 30 -1 30
-55 30 l-55 0 0 100 0 100 -35 0 -35 0 0 -100z"/>
<path d="M653 4718 c55 -212 204 -717 212 -715 5 2 59 126 119 276 60 150 112
269 116 264 4 -4 54 -128 111 -275 57 -147 108 -266 114 -265 7 3 189 613 211
710 6 28 5 28 -31 25 l-38 -3 -75 -263 c-66 -228 -78 -260 -87 -240 -6 13 -54
132 -106 265 -52 134 -98 241 -104 240 -5 -2 -55 -117 -110 -255 -55 -138
-104 -254 -107 -258 -7 -7 -13 12 -97 311 l-56 200 -39 3 c-36 3 -38 2 -33
-20z"/>
<path d="M6706 4708 c-7 -18 -86 -185 -174 -370 l-160 -338 42 0 42 0 56 120
56 120 162 0 162 0 56 -120 57 -120 38 0 c20 0 37 3 37 8 -1 19 -337 726 -347
729 -7 3 -19 -11 -27 -29z m144 -388 c0 -6 -44 -10 -120 -10 -66 0 -120 4
-120 9 0 4 27 66 61 136 l60 129 60 -127 c32 -69 59 -131 59 -137z"/>
<path d="M1850 4551 c-71 -23 -141 -83 -175 -151 -23 -45 -31 -157 -16 -212
29 -102 132 -190 237 -204 68 -8 149 15 208 61 l46 35 0 -40 c0 -39 1 -40 35
-40 l35 0 0 275 0 275 -35 0 c-35 0 -35 0 -35 -46 l0 -46 -35 31 c-19 17 -50
38 -68 47 -36 19 -157 28 -197 15z m204 -91 c76 -52 112 -143 95 -237 -20
-108 -116 -179 -228 -171 -176 13 -262 225 -148 363 45 55 98 76 178 73 50 -3
75 -9 103 -28z"/>
<path d="M2887 4545 c-64 -24 -114 -71 -148 -140 -60 -121 -36 -258 60 -348
58 -55 105 -72 197 -71 60 0 82 5 130 30 53 26 124 98 124 124 0 5 -12 16 -27
23 -25 14 -27 13 -57 -26 -63 -82 -188 -111 -276 -65 -53 29 -99 96 -107 157
l-6 41 248 0 248 0 -6 49 c-11 95 -62 167 -148 210 -52 26 -74 31 -128 30 -36
0 -83 -7 -104 -14z m200 -76 c48 -23 88 -68 98 -111 l7 -28 -201 0 c-159 0
-201 3 -201 13 0 7 13 33 29 58 53 85 172 115 268 68z"/>
<path d="M3535 4548 c-11 -6 -35 -24 -52 -41 l-33 -31 0 37 c0 36 -1 37 -35
37 l-35 0 0 -275 0 -275 34 0 34 0 4 183 c6 201 14 235 68 281 22 18 43 26 69
26 30 0 40 5 51 26 12 22 12 27 0 34 -20 13 -81 12 -105 -2z"/>
<path d="M3762 4540 c-50 -31 -74 -76 -69 -133 6 -64 29 -93 119 -147 95 -57
105 -65 113 -97 18 -74 -76 -139 -148 -102 -12 6 -32 21 -44 32 l-22 20 -20
-24 c-27 -32 -26 -34 12 -63 75 -57 174 -57 237 0 83 75 69 195 -30 254 -102
61 -136 87 -148 112 -17 37 -1 75 41 93 40 16 70 11 113 -21 l31 -23 22 23
c11 12 21 25 21 29 0 4 -24 20 -52 37 -64 36 -127 40 -176 10z"/>
<path d="M4903 4544 c-97 -35 -173 -150 -173 -265 0 -87 22 -148 76 -208 117
-130 338 -116 438 27 l31 43 -25 19 c-14 11 -27 20 -30 20 -3 0 -15 -16 -27
-35 -49 -75 -167 -115 -255 -86 -67 22 -137 116 -138 184 l0 27 246 0 247 0
-5 48 c-9 97 -85 196 -175 226 -57 20 -154 19 -210 0z m205 -75 c46 -23 102
-89 102 -121 0 -17 -12 -18 -200 -18 -158 0 -200 3 -200 13 0 7 13 33 29 58
53 85 172 115 269 68z"/>
<path d="M7240 4542 c-70 -35 -95 -134 -52 -204 13 -21 48 -50 89 -74 98 -57
123 -80 123 -116 0 -40 -15 -65 -50 -83 -44 -23 -82 -18 -127 14 l-41 30 -22
-24 c-20 -21 -21 -27 -10 -40 47 -57 174 -78 240 -40 73 43 101 159 53 224
-11 14 -57 49 -104 78 -46 28 -89 60 -96 69 -36 49 8 119 73 117 19 -1 52 -12
73 -26 l39 -26 22 24 21 23 -33 25 c-65 50 -136 61 -198 29z"/>
<path d="M7643 4544 c-52 -26 -76 -74 -71 -140 6 -66 33 -99 126 -151 83 -46
102 -68 102 -114 0 -30 -7 -43 -32 -64 -27 -23 -39 -26 -75 -22 -25 2 -57 16
-77 30 -34 26 -34 26 -52 6 -22 -24 -13 -43 35 -76 90 -61 224 -25 260 70 18
46 13 101 -12 138 -21 31 -50 53 -156 118 -51 31 -70 73 -50 110 22 39 62 55
104 41 18 -6 45 -20 58 -30 24 -19 24 -19 46 4 l21 22 -23 22 c-53 50 -143 66
-204 36z"/>
<path d="M8154 4544 c-58 -21 -114 -72 -149 -135 -26 -47 -30 -64 -30 -134 0
-95 22 -151 80 -210 57 -56 115 -79 205 -79 91 0 151 26 206 86 54 60 75 117
75 198 0 114 -58 212 -156 263 -52 27 -173 33 -231 11z m191 -73 c77 -34 125
-114 125 -203 -1 -168 -162 -266 -311 -190 -77 39 -114 101 -114 191 0 54 5
75 27 112 24 41 78 88 118 102 34 12 117 6 155 -12z"/>
<path d="M8846 4544 c-71 -23 -159 -112 -180 -184 -33 -110 -9 -214 66 -287
64 -63 126 -87 223 -88 71 0 88 4 147 33 37 18 77 46 88 62 l21 29 -25 17
c-25 15 -27 15 -58 -12 -77 -64 -190 -83 -274 -45 -85 39 -146 150 -129 239
14 77 80 153 153 176 38 12 138 8 174 -7 19 -8 51 -29 71 -46 35 -31 37 -32
61 -16 29 19 25 34 -16 71 -72 66 -216 92 -322 58z"/>
<path d="M9714 4544 c-136 -48 -212 -211 -169 -360 24 -84 105 -165 189 -189
95 -28 197 -4 269 63 l27 26 0 -42 c0 -41 1 -42 35 -42 l35 0 0 275 0 275 -35
0 -35 0 0 -47 0 -47 -32 31 c-71 68 -187 91 -284 57z m228 -90 c63 -44 93
-103 93 -184 0 -51 -6 -75 -25 -110 -103 -184 -379 -124 -407 89 -11 82 42
181 118 220 65 33 162 27 221 -15z"/>
<path d="M11000 4551 c-49 -15 -86 -40 -126 -83 -59 -64 -78 -120 -72 -215 5
-84 20 -121 70 -179 80 -91 226 -117 341 -61 103 51 164 162 155 281 -10 115
-85 216 -186 250 -48 17 -139 20 -182 7z m200 -96 c106 -73 129 -215 51 -322
-74 -102 -239 -110 -322 -16 -42 49 -59 92 -59 153 0 87 49 166 125 202 60 28
150 21 205 -17z"/>
<path d="M11684 4541 c-22 -10 -57 -33 -77 -51 l-37 -32 0 46 c0 46 0 46 -35
46 l-35 0 0 -275 0 -275 34 0 33 0 5 173 c4 160 6 176 29 217 36 65 96 104
163 104 66 0 101 -21 127 -77 16 -36 19 -67 19 -229 l0 -188 35 0 35 0 0 188
c0 201 -8 248 -47 301 -51 66 -164 90 -249 52z"/>
<path d="M9340 4275 l0 -275 35 0 35 0 0 275 0 275 -35 0 -35 0 0 -275z"/>
<path d="M10600 4275 l0 -275 40 0 40 0 0 275 0 275 -40 0 -40 0 0 -275z"/>
<path d="M6070 3620 c-402 -56 -778 -267 -1032 -580 -440 -542 -476 -1304 -89
-1882 362 -541 1011 -811 1640 -682 612 126 1109 613 1240 1216 62 286 48 566
-40 838 -179 548 -640 957 -1206 1071 -121 24 -400 34 -513 19z m351 -236
c131 -63 276 -162 379 -258 48 -45 120 -101 160 -126 91 -57 232 -188 305
-286 109 -145 187 -319 225 -503 37 -184 21 -491 -33 -624 l-13 -31 -58 83
c-83 118 -186 223 -287 291 -76 50 -179 100 -209 100 -18 0 -11 12 44 70 29
32 63 78 75 102 26 56 28 138 2 194 -35 76 -127 134 -212 134 -47 0 -129 -41
-163 -80 -28 -34 -28 -34 -7 -49 68 -52 180 -147 181 -153 0 -8 -158 -65 -249
-89 -40 -10 -110 -22 -155 -25 -75 -7 -85 -10 -136 -49 -224 -172 -474 -287
-713 -330 -174 -31 -455 -9 -506 40 -21 20 -19 285 2 397 50 252 159 461 335
641 167 170 360 281 584 336 l87 22 121 119 c66 66 126 120 134 120 7 0 55
-21 107 -46z m321 -1468 c174 -34 298 -104 428 -243 79 -85 97 -112 63 -98
-104 43 -139 49 -293 49 -153 1 -157 0 -262 -36 -137 -47 -215 -87 -366 -187
-154 -102 -257 -154 -369 -186 -212 -62 -428 -34 -624 81 -103 60 -206 194
-225 293 -6 30 -5 33 12 27 100 -31 338 -36 491 -10 187 31 352 89 573 199
144 72 198 92 295 110 94 18 188 18 277 1z m343 -391 c82 -17 195 -70 248
-117 l38 -33 -60 -91 c-187 -284 -486 -481 -815 -539 -129 -22 -343 -20 -467
5 -186 38 -350 112 -499 224 -85 64 -210 185 -210 204 0 5 35 -5 78 -23 100
-44 208 -65 326 -65 204 0 378 62 615 220 302 200 519 263 746 215z"/>
<path d="M6077 3075 c-351 -66 -648 -291 -807 -610 -84 -167 -112 -279 -114
-454 l-1 -134 30 -9 c128 -36 418 -7 540 55 105 53 212 211 235 346 23 139
-29 295 -144 431 -30 35 -53 66 -51 68 9 9 90 -44 144 -94 71 -66 134 -182
152 -279 13 -71 6 -211 -14 -277 -8 -27 -11 -48 -7 -48 13 0 164 112 250 185
77 66 152 145 247 261 27 32 65 63 105 84 55 30 74 35 155 38 74 4 106 0 165
-18 93 -28 184 -76 275 -144 l73 -55 -26 52 c-76 150 -220 313 -368 416 -103
71 -245 137 -363 168 -125 32 -354 41 -476 18z m-517 -640 c100 -52 62 -215
-50 -215 -79 0 -120 41 -120 118 0 87 90 138 170 97z"/>
</g>
</svg>
